<svg xmlns="http://www.w3.org/2000/svg" viewBox="0 0 1024 1024" role="img" aria-labelledby="title desc">
  <title id="title">Orange wrench favicon</title>
  <desc id="desc">A flat orange wrench icon on a dark rounded square background.</desc>
  <defs>
    <linearGradient id="bg" x1="0" y1="0" x2="1" y2="1">
      <stop offset="0" stop-color="#191b1f"/>
      <stop offset="1" stop-color="#0e1013"/>
    </linearGradient>
    <linearGradient id="wrench" x1="260" y1="780" x2="780" y2="220" gradientUnits="userSpaceOnUse">
      <stop offset="0" stop-color="#ff7a00"/>
      <stop offset="1" stop-color="#ff9d00"/>
    </linearGradient>
  </defs>

  <rect width="1024" height="1024" rx="170" fill="url(#bg)"/>

  <g transform="rotate(-45 512 512)">
    <path fill="url(#wrench)" d="
      M463 703
      C395 681 346 617 346 542
      C346 454 410 380 494 365
      L494 497
      C494 513 507 526 523 526
      L603 526
      C619 526 632 513 632 497
      L632 365
      C716 380 780 454 780 542
      C780 617 731 681 663 703
      L663 850
      C663 905 618 950 563 950
      C508 950 463 905 463 850
      Z"/>
    <circle cx="563" cy="848" r="36" fill="#101216"/>
  </g>
</svg>
